<?xml version="1.0" encoding="utf-8"?>
<!-- Generator: Adobe Illustrator 18.0.0, SVG Export Plug-In . SVG Version: 6.00 Build 0)  -->
<!DOCTYPE svg PUBLIC "-//W3C//DTD SVG 1.1//EN" "http://www.w3.org/Graphics/SVG/1.1/DTD/svg11.dtd">
<svg version="1.1" id="Layer_1" xmlns="http://www.w3.org/2000/svg" xmlns:xlink="http://www.w3.org/1999/xlink" x="0px" y="0px"
	 width="841.9px" height="595.3px" viewBox="0 0 841.9 595.3" enable-background="new 0 0 841.9 595.3" xml:space="preserve">
<g>
	<rect y="0" fill="#FFFFFF" width="841.9" height="595.3"/>
	<g>
		<path fill="#39434D" d="M460.1,285.2c-4-9.1-13.1-15-23-15h-0.5c1.3-0.9,2.1-2.4,2.1-4.1v-14.9c0-9.9-8.1-18.3-18-18.1
			c-9.6,0.2-17.3,8-17.3,17.6V266c0,1.7,0.8,3.2,2.1,4.1h-0.5c-10,0-19,5.9-23.1,15l-17.6,38.7l12.1,7.1l19.1-30.6V353h24.5v-82.8
			H413c-1.7,0-3.1-1.4-3.1-3.1v-13.5c0-6.1,4.7-11.3,10.8-11.4c6.2-0.1,11.2,4.9,11.2,11V267c0,1.7-1.4,3.1-3.1,3.1H422V353h24.5
			v-52.6l19.1,30.6l12.1-7.1L460.1,285.2z M401,339.1l-1.9-0.9l7.5-15.3l1.9,0.9L401,339.1z M440.9,339.1l-7.5-15.3l1.9-0.9
			l7.5,15.3L440.9,339.1z"/>
		<g>
			<polygon fill="#39434D" points="480.9,495.2 360.9,495.2 360.9,505.1 364.8,505.1 364.8,507.7 372.6,507.7 372.6,505.1 
				382.2,505.1 382.2,507.7 390,507.7 390,505.1 399.6,505.1 399.6,507.7 407.4,507.7 407.4,505.1 417,505.1 417,507.7 424.9,507.7 
				424.9,505.1 434.4,505.1 434.4,507.7 442.3,507.7 442.3,505.1 451.9,505.1 451.9,507.7 459.7,507.7 459.7,505.1 469.3,505.1 
				469.3,507.7 477.1,507.7 477.1,505.1 480.9,505.1 			"/>
			<g>
				<path fill="#39434D" d="M475.5,458.6c-18.6,0.7-33.5,16.1-33.5,34.8c0,0.6,0,1.2,0,1.8h34.8L475.5,458.6z"/>
				<path fill="#39434D" d="M439,493.4c0-20.4,16.2-37.1,36.4-37.9l-1.4-36.6h-49.7l-3.5,19.4l13.8,2l-0.5,3l-13.9-2.1l-0.2,0.9
					c-0.3,1.8-0.9,3.6-1.6,5.2l12.5,6.3l-1.4,2.8l-12.6-6.3c-1,1.7-2.3,3.2-3.7,4.6l9.3,10.6l-2.3,2l-9.3-10.6
					c-1.7,1.3-3.7,2.3-5.8,3.1l5.5,12.4l-2.8,1.2l-5.6-12.6l-7.5,2.5l5,13.5l-2.9,1.1l-5.1-13.6l-11.2,3.7
					c-9.5,3.1-15.8,12-15.8,21.9v5.3H439C439,494.6,439,494,439,493.4z"/>
			</g>
		</g>
		<g>
			
				<rect x="201.4" y="396.9" transform="matrix(0.7071 -0.7071 0.7071 0.7071 -243.6833 271.6967)" fill="#39434D" width="9.4" height="66.2"/>
			<polygon fill="#39434D" points="180.2,415.4 164,446.7 189.4,472.2 220.8,455.9 			"/>
			<g>
				<path fill="#39434D" d="M116.3,519.8c-3-3-3-7.9,0-10.9c3-3,7.9-3,10.9,0c3,3,3,7.9,0,10.9C124.2,522.8,119.3,522.8,116.3,519.8
					z M124.1,512c-1.3-1.3-3.4-1.3-4.7,0c-1.3,1.3-1.3,3.4,0,4.7c1.3,1.3,3.4,1.3,4.7,0C125.4,515.4,125.4,513.3,124.1,512z"/>
			</g>
			<path fill="#39434D" d="M165.1,444.8L115,495c-2.8,2.8-2.8,7.4,0,10.2l15.9,15.9c2.8,2.8,7.4,2.8,10.2,0l50.2-50.2L165.1,444.8z
				 M155.3,480.8c-1.6-1.6-1.6-4.3,0-5.9c1.6-1.6,4.3-1.6,5.9,0c1.6,1.6,1.6,4.3,0,5.9C159.5,482.5,156.9,482.5,155.3,480.8z
				 M165.5,470.6c-1.6-1.6-1.6-4.3,0-5.9c1.6-1.6,4.3-1.6,5.9,0c1.6,1.6,1.6,4.3,0,5.9C169.8,472.2,167.1,472.2,165.5,470.6z"/>
		</g>
		<g>
			<polygon fill="#39434D" points="170.9,162.3 170.9,96.8 144,152.8 			"/>
			<path fill="#39434D" d="M220.2,123l5.3-14.6c-6-1.7-11.6-1.4-16.2-0.5c-8.6-9.7-20.4-19-36.4-26.2c-16.1,7.1-27.8,16.4-36.4,26.2
				c-4.6-0.9-10.2-1.2-16.2,0.5l5.3,14.6c-12.4,21.3-12.6,40.7-12.6,40.7h56l-27.7-9.8l31.7-66l34.1,75.7h25.9
				C232.9,163.7,232.6,144.3,220.2,123z"/>
		</g>
		<g>
			<path fill="#39434D" d="M203.5,307.9c-0.2,11.4-0.6,22.7-1.4,34c3.5-0.8,7.8-2.7,7.8-6.7C210,329.3,212.6,314.9,203.5,307.9z"/>
			<path fill="#39434D" d="M142.2,307.9c0.2,11.4,0.6,22.7,1.4,34c-3.5-0.8-7.8-2.7-7.8-6.7C135.8,329.3,133.1,314.9,142.2,307.9z"
				/>
			<g>
				<path fill="#39434D" d="M200.4,258.5c-0.4-7.2-5.8-13.1-12.9-14.2c-9.7-1.5-19.5-1.5-29.2,0c-7.1,1.1-12.5,7-12.9,14.2
					c-1.8,29-1.6,58,0.5,87c0.2,2.2,1.7,4.1,3.9,4.6c15.4,3.8,30.8,3.8,46.2,0c2.2-0.5,3.7-2.4,3.9-4.6
					C202,316.5,202.2,287.5,200.4,258.5z M191.3,335.9c-0.1,1.9-1.5,3.4-3.3,3.9c-5,1.2-10.1,1.9-15.1,1.9c-5,0-10.1-0.6-15.1-1.9
					c-1.8-0.5-3.1-2-3.3-3.9c-1.4-18.6-1.5-37.5-0.3-56.2c0.3-5.1,4.2-9.3,9.2-10.1c6.4-1,12.8-1,19.2,0c5,0.8,8.9,5,9.2,10.1
					C192.8,298.4,192.6,317.3,191.3,335.9z"/>
				<path fill="#39434D" d="M182.1,271.7c-3.1-0.5-6.2-0.7-9.3-0.7c-3.1,0-6.2,0.2-9.3,0.7c-4.1,0.6-7.2,4.1-7.5,8.2
					c-1.1,18.5-1,37.3,0.3,55.9c0.1,1,0.8,1.8,1.7,2c9.7,2.4,19.6,2.4,29.3,0c1-0.2,1.7-1.1,1.7-2c1.4-18.5,1.5-37.3,0.3-55.9
					C189.3,275.7,186.2,272.3,182.1,271.7z M173.9,334.3h-2v-52.1h2V334.3z"/>
			</g>
			<g>
				<path fill="#39434D" d="M196.1,246.1l1.5-10.1c0.2-1.1-0.6-2.2-1.7-2.3l-4.8-0.7c-1.1-0.2-2.2,0.6-2.3,1.7l-1.1,7.6
					c0.1,0,0.1,0,0.2,0C190.9,242.8,193.8,244.2,196.1,246.1z"/>
				<path fill="#39434D" d="M158.1,242.3l-1.1-7.6c-0.2-1.1-1.2-1.9-2.3-1.7l-4.8,0.7c-1.1,0.2-1.9,1.2-1.7,2.3l1.5,10.1
					c2.3-1.9,5.2-3.3,8.3-3.8C158,242.3,158,242.3,158.1,242.3z"/>
			</g>
		</g>
		<g>
			<path fill="#39434D" d="M427.2,100.1c0,0-20.9,23.8-39,26.5c-2.7,0.4-5.3,1.6-7.4,3.4c-5.4,4.6-14.7,14.1-19.6,28
				c-0.8,2.2,0.4,4.7,2.5,5.6l6.8,2.9c2.4,1,5.1-0.1,6-2.5c2.3-5.6,7.2-15.7,16.8-25.7c0.7-0.8,1.6-1.3,2.6-1.7
				c5-2,22.4-10,36.6-31.1L427.2,100.1z"/>
			<g>
				<path fill="#39434D" d="M459,119.2c-7.2,7.2-14.5,13.2-19.7,16.1l1.8,5.8c4.7-1.7,13.4-8.4,22.4-17.4c9-9,15.6-17.7,17.4-22.4
					l-5.8-1.8C472.2,104.7,466.2,112,459,119.2z"/>
				<path fill="#39434D" d="M457.2,117.4c6.8-6.8,12.5-13.8,15.4-18.7l-19.3-6.1l-14-14l-2.3,2.3l-16.3,16.3l-2.3,2.3l14,14
					l6.1,19.3C443.4,129.9,450.4,124.1,457.2,117.4z"/>
			</g>
		</g>
		<g>
			<g>
				<path fill="#39434D" d="M669,436.1c-21.2,0-38.4,17.2-38.4,38.4c0,21.2,17.2,38.4,38.4,38.4s38.4-17.2,38.4-38.4
					C707.4,453.3,690.2,436.1,669,436.1z"/>
				<path fill="#39434D" d="M669,425.7c-26.9,0-48.8,21.8-48.8,48.8s21.8,48.8,48.8,48.8c26.9,0,48.8-21.8,48.8-48.8
					S696,425.7,669,425.7z M669,514.9c-22.3,0-40.4-18.1-40.4-40.4c0-22.3,18.1-40.4,40.4-40.4c22.3,0,40.4,18.1,40.4,40.4
					C709.4,496.7,691.3,514.9,669,514.9z"/>
			</g>
			<rect x="665.4" y="416.7" fill="#39434D" width="7.3" height="13.6"/>
			<path fill="#39434D" d="M669,403.3c-5.9,0-10.7,4.8-10.7,10.7c0,4,2.2,7.5,5.5,9.3v-7c-0.3-0.7-0.5-1.5-0.5-2.3
				c0-3.1,2.5-5.7,5.7-5.7c3.1,0,5.7,2.5,5.7,5.7c0,0.8-0.2,1.6-0.5,2.3v7c3.3-1.8,5.5-5.3,5.5-9.3C679.7,408,674.9,403.3,669,403.3
				z"/>
			<path fill="#FFFFFF" d="M693.3,450.2l-27.8,20.7l-20.7,27.8l27.8-20.7L693.3,450.2z M667.5,476c-0.8-0.8-0.8-2.2,0-3.1
				c0.8-0.8,2.2-0.8,3.1,0c0.8,0.8,0.8,2.2,0,3.1C669.7,476.8,668.3,476.8,667.5,476z"/>
			<g>
				<polygon fill="#FFFFFF" points="665.9,439.5 669,445 672.2,439.5 				"/>
				<polygon fill="#FFFFFF" points="672.2,509.5 669,504 665.9,509.5 				"/>
			</g>
			<g>
				<polygon fill="#FFFFFF" points="704,471.3 698.5,474.5 704,477.6 				"/>
				<polygon fill="#FFFFFF" points="634,477.6 639.5,474.5 634,471.3 				"/>
			</g>
		</g>
		<g>
			<rect x="619.8" y="169.8" fill="#39434D" width="13.4" height="3.7"/>
			<rect x="704.9" y="169.8" fill="#39434D" width="13.4" height="3.7"/>
			<path fill="#39434D" d="M719,85.5h-30.6v-6c0-4.1-3.4-7.5-7.5-7.5h-23.8c-4.1,0-7.5,3.4-7.5,7.5v6H619c-5.5,0-10,4.5-10,10v61.9
				c0,5.5,4.5,10,10,10h100c5.5,0,10-4.5,10-10V95.5C729,90,724.5,85.5,719,85.5z M654.6,79.5c0-1.4,1.1-2.5,2.5-2.5h23.8
				c1.4,0,2.5,1.1,2.5,2.5v6h-28.8V79.5z M688.4,131.8h-14v14h-10.7v-14h-14v-10.7h14v-14h10.7v14h14V131.8z"/>
		</g>
		<g>
			<path fill="#39434D" d="M667.5,280.9v62.5c0,2.9,2.3,5.2,5.2,5.2h51.1c2.9,0,5.2-2.3,5.2-5.2v-62.5H667.5z"/>
			<path fill="#39434D" d="M623.9,237.3l-13.4,13.4c-2,2-2,5.4,0,7.4l36.1,36.1c2,2,5.4,2,7.4,0l13.4-13.4L623.9,237.3z"/>
			<rect x="675.2" y="269" fill="#39434D" width="46.2" height="9.8"/>
			<rect x="690.5" y="263.5" fill="#39434D" width="15.4" height="5.5"/>
			<rect x="696.1" y="261.6" fill="#39434D" width="4.2" height="3.7"/>
			<path fill="#39434D" d="M721.3,261.6c-3.4,0-6.2,2.3-7.1,5.4h9v9c3.1-0.8,5.4-3.7,5.4-7.1C728.7,264.9,725.4,261.6,721.3,261.6z"
				/>
			<path fill="#39434D" d="M701.6,260.7c0,0,5.2-2.7,4.2-8.4c-1-5.6-5.2-10.5-9-12.8c0.9,3.5-4.6,6-5.9,12.8
				c-1.1,5.7,4.2,8.4,4.2,8.4s-5.6-5.3,3.3-13.1C698.2,247.7,706.9,254.7,701.6,260.7z"/>
		</g>
	</g>
</g>
</svg>
